<?xml version="1.0" encoding="utf-8"?>
<!-- Generator: Adobe Illustrator 26.0.0, SVG Export Plug-In . SVG Version: 6.00 Build 0)  -->
<svg version="1.1" id="Layer_1" xmlns="http://www.w3.org/2000/svg" xmlns:xlink="http://www.w3.org/1999/xlink" x="0px" y="0px"
	 viewBox="0 0 595.28 841.89" style="enable-background:new 0 0 595.28 841.89;" xml:space="preserve">
<style type="text/css">
	.st0{fill:#DA9CBD;}
	.st1{fill:#F5A9C9;}
	.st2{fill:#F1AFCB;}
	.st3{fill:#E9B4CB;}
	.st4{fill:#FFFEFE;}
	.st5{fill:#FDFBFC;}
</style>
<g>
	<path class="st0" d="M198.63,570.49c0.06-1.31-1.59-1.47-1.77-2.62c0.17-0.02,0.34-0.05,0.51-0.07c4.69,3.31,8.92,7.19,13.35,10.83
		c6.02,4.95,12.23,9.63,18.65,14.02c9.6,6.57,19.43,12.78,29.92,17.89c9.63,4.7,19.38,8.97,29.92,11.31
		c6.64,1.47,12.87,0.08,19.07-1.89c12.33-3.93,23.96-9.47,35.09-16.01c10.29-6.04,20.14-12.77,29.6-20.06
		c6.46-4.97,12.74-10.16,18.73-15.66c6.04-5.55,11.6-11.59,17.14-17.65c5.8-6.35,11.11-13.08,16.25-19.95
		c5.76-7.69,11.06-15.69,15.85-24.03c3.8-6.62,7.27-13.42,10.46-20.35c4.84-10.53,8.77-21.41,12.26-32.45
		c4.15-13.12,7.45-26.47,10.3-39.92c2.39-11.31,4.31-22.71,5.95-34.15c1.82-12.66,3.35-25.35,4.43-38.1
		c0.91-10.87,1.92-21.73,2.23-32.64c0.17-6.18,0.5-12.36,0.78-18.53c0.11-2.35-0.24-4.64-0.86-6.89c1.8,3.28,4.03,6.43,3.9,10.39
		c-0.31,9.07-0.59,18.13-1.16,27.19c-0.33,5.21-0.61,10.43-1.05,15.63c-0.61,7.14-0.99,14.3-1.93,21.42
		c-0.64,4.87-1.39,9.75-1.59,14.7c-0.13,3.13-0.91,6.24-1.41,9.35c-1.55,9.66-3.03,19.32-4.69,28.96c-0.77,4.46-1.84,8.88-2.85,13.3
		c-1.34,5.87-2.64,11.75-4.17,17.56c-1.56,5.9-3.3,11.75-5.12,17.57c-1.49,4.77-3.23,9.46-4.86,14.18
		c-3.2,9.03-7.16,17.75-11.49,26.26c-3.42,6.72-7.05,13.35-11.2,19.68c-4.14,6.32-8.14,12.74-12.75,18.73
		c-5.23,6.78-10.7,13.37-16.61,19.6c-4.46,4.71-9.02,9.3-13.56,13.92c-4.18,4.26-8.93,7.88-13.43,11.77
		c-0.38,0.33-0.68,0.74-1.02,1.12c-3.28,1.88-6.02,4.49-9.05,6.71c-10.02,7.34-20.28,14.27-31.18,20.25
		c-5.36,2.94-10.86,5.58-16.43,8.04c-7.22,3.19-14.66,5.96-22.5,7.33c-5.14,0.89-10.08-0.4-14.93-1.89
		c-9.5-2.93-18.54-6.92-27.41-11.39c-4.91-2.48-9.87-4.93-14.48-7.85c-6.83-4.34-13.56-8.89-20.08-13.73
		c-6.46-4.8-12.51-10.08-18.8-15.09c-1.93-1.54-3.55-3.42-5.44-5.03C200.36,571.55,198.93,571.81,198.63,570.49z"/>
	<path class="st1" d="M439.28,479.62c-0.02,0.25-0.04,0.51-0.06,0.76c-0.47-0.19-1.23-0.26-1.35-0.58c-1.14-2.89-3.6-2.48-5.91-2.48
		c-50.72,0-101.43,0-152.15-0.01c-0.94,0-1.92,0.21-2.8-0.25c-1.89-0.99-3.74-0.79-5.66-0.05c-1.92,0.75-2.51,0.31-2.74-1.87
		c0.88-0.3,1.75-0.59,2.63-0.89c0.06,0.54-0.06,1.28,0.8,1.18c0.93-0.11,0.93-0.91,0.94-1.63c0.48-0.57,1.15-0.39,1.76-0.43
		c0.08,0.38-0.14,1.02,0.45,1.01c0.57-0.01,0.36-0.64,0.42-1.02c1.04-0.81,2.27-0.83,3.51-0.87c2.32-0.07,4.66,0.29,6.96-0.21
		c5.46-1.2,8.91-5.02,11.6-9.5c2.25-3.72,0.73-8.88-2.88-11.27c-1.65-2.54-3.2-5.14-5.35-7.33c-2.39-2.44-4.59-5.36-7.82-6.47
		c-7.93-2.73-14.45-7.23-19.54-13.86c0.63-0.94-0.12-1.64-0.43-2.42c-1.93-4.81-2.26-9.66,0.41-14.26c1.9-3.29,4.63-5.94,7.7-8.23
		c2.57-1.91,5.35-2.77,8.57-2.58c2.36,0.14,4.52,1.12,6.83,1.31c6.67,0.54,13.63-6.12,13.63-12.96c0-47.74-0.01-95.49,0.03-143.23
		c0-3.39-2.03-5.52-3.98-7.8c-0.24-0.36-0.51-0.71-0.72-1.08c-3.84-6.63-9.1-10.76-17.24-10.31c-2.06,0.12-4.01,0.74-6.03,0.82
		c-7.64,0.31-15.17,1.59-22.67,2.89c-6.26,1.08-12.51,2.35-18.67,4.05c-7.32,2.01-14.65,3.96-21.71,6.74
		c-10.9,4.29-21.1,9.88-30.71,16.6c-13.93,9.73-26.93,20.55-38.64,32.86c-5.04,5.29-8.19,11.71-8.82,19
		c-0.53,6.16,0.7,12.31,1.12,18.46c0.55,8.11,1.44,16.19,2.28,24.28c0.59,5.7,1.23,11.4,2.06,17.07c0.69,4.73,1.41,9.46,2.18,14.18
		c1.02,6.23,2.09,12.45,3.29,18.65c1.38,7.1,2.87,14.17,4.63,21.19c1.31,5.25,2.61,10.51,4.16,15.7c0.74,2.49,1.37,5.02,2.05,7.52
		c-0.98,2.18-0.91,4.4-0.53,6.73c0.19,1.19,1.47,1.61,1.4,2.83c-0.09,1.58,0.67,2,2.28,2.33c1.05,0.21-0.44,2.67,1.09,3.57
		c0.3,0.18,0.68,0.21,1.03,0.3l-0.01,0c-0.04,0.62-0.03,1.21,0.78,1.34c0.04,0.4,0.08,0.81,0.12,1.21
		c-0.59,1.85,0.38,3.03,1.74,4.03c0.04,0.1,0.05,0.21,0.02,0.32c-0.07,0.67-0.08,1.31,0.81,1.43c0.03,0.25,0.06,0.5,0.08,0.75
		c-1.02,1.62-2.49,3.19-0.36,5.06c0.3,0.27,0.07,0.69-0.26,0.91c-0.28,0.19-0.64,0.13-0.78-0.11c-0.75-1.28-1.8-2.52-2.08-3.91
		c-0.65-3.15-0.5-3.15-3.75-3.16c-1.05,0-1.99,0.23-2.94,0.65c-1.24,0.55-2.25-0.45-1.6-1.23c1.79-2.11,0.51-3.8-0.07-5.7
		c-0.22-0.73,0.01-1.59-0.05-2.39c-0.12-1.51-0.29-3.02-0.46-4.53c-0.06-0.53-0.25-1.06-0.9-1.01c-0.62,0.05-0.95,0.67-0.74,1.11
		c1.37,2.94-0.28,6.18,0.98,9.14c0.52,1.22,0.02,2.14-1.47,2.21c-0.59-1.9-1.17-3.8-1.76-5.7c0.24-0.15,0.66-0.27,0.68-0.44
		c0.31-2.56-0.68-4.9-1.37-7.28c-0.17-0.6-0.94-0.58-1.53-0.57c-0.59-0.5-0.77-1.22-0.97-1.92c-2.2-7.96-4.52-15.9-6.15-24.01
		c-1.3-6.46-2.94-12.85-4.14-19.32c-1.42-7.62-2.56-15.29-3.74-22.95c-1.29-8.38-2.23-16.81-3.28-25.22
		c-1.01-8.12-1.81-16.29-2.18-24.47c-0.44-9.79-1.45-19.56-1.41-29.38c0.01-1.6-0.08-3.18-0.3-4.78c-0.21-1.5-0.67-3.22,0.58-4.6
		c2.82-3.13,5.57-6.33,8.51-9.35c6.1-6.25,12.39-12.3,18.89-18.14c6.38-5.73,12.93-11.28,19.77-16.41
		c8.31-6.22,17.01-11.85,26.38-16.45c8.72-4.28,17.8-7.49,27.12-10.06c11.48-3.16,23.13-5.49,34.95-7.1
		c7.84-1.06,15.7-1.98,23.57-2.35c6.57-0.31,13.16-0.81,19.81-0.3c7.81,0.61,15.68,0.32,23.52,0.91c6.44,0.49,12.88,1.12,19.25,2.02
		c9.18,1.3,18.32,2.91,27.31,5.29c11.66,3.08,23.17,6.43,34.07,11.84c9.56,4.75,18.23,10.76,26.83,16.93
		c5.88,4.22,11.37,8.96,16.76,13.82c7.88,7.11,15.89,14.07,22.92,22.07c0.74,0.84,1.38,1.94,2.71,2.06c0,0-0.01-0.01-0.01-0.01
		c-0.06,1.15,0.62,1.76,1.58,2.17c0.35,3.43,0.07,6.84-0.42,10.22c-0.23,1.6-0.2,3.19-0.26,4.78c-0.32,8.56-0.86,17.1-1.57,25.64
		c-0.5,6.07-0.95,12.15-1.54,18.21c-0.76,7.71-1.92,15.39-2.83,23.09c-0.98,8.37-2.62,16.62-3.84,24.94
		c-0.53,3.64-1.54,7.24-2.25,10.85c-0.9,4.56-1.75,9.12-2.86,13.63c-1.78,7.25-3.54,14.49-5.72,21.64c-1.5,4.92-3,9.83-4.74,14.66
		c-1.42,3.92-2.59,7.93-4.41,11.7c-2.09,2.23-3.76,4.64-3.49,7.91c0,0,0.01-0.01,0.01-0.01
		C438.93,477.96,439.29,478.88,439.28,479.62z M272.99,417.38c0.5,1.49,1.46,2.57,2.67,3.58c2.84,2.38,5.95,4.35,9.13,6.22
		c3.14,1.85,6.47,3.38,9.99,4.1c5.27,1.08,10.44,0.63,15.54-1.55c5.3-2.27,9.92-5.48,14-9.41c3.46-3.33,2.73-8.58-1.33-12.51
		c-0.88-3.87-3.2-4.77-6.34-2.45c-2.84,2.1-5.53,4.4-8.61,6.18c-6.58,3.79-13.32,4.38-20.34,1.26c-4.61-2.05-8.76-4.79-12.67-7.94
		c-2.02-1.62-3.89-1.3-5.03,0.94c-1.01,2-1.68,4.04-0.88,6.46C269.86,414.49,271.33,415.95,272.99,417.38z M424.82,335.19
		c-1.86-5.49-6.71-6.42-11.07-3.37c-4.38,3.06-8.91,5.95-13.74,8.29c-4.81,2.34-9.7,4.5-14.8,6.17c-6.87,2.26-13.84,3.82-21.1,3.67
		c-2.16-0.04-4.32-0.48-6.47-0.76c-4.96-0.63-9.86-1.56-14.62-3.16c-3.29-1.1-6.55-2.3-9.89-3.2c-2.72-0.73-5.34-0.03-7.08,2.23
		c-1.56,2.04-1.89,4.39-0.75,6.98c0.65,1.47,2,2.05,2.81,3.22c1.37,2.1,2.59,4.22,5.26,5.11c3.99,1.33,7.98,2.61,11.99,3.87
		c7.33,2.31,14.84,3.34,22.44,3.67c6.78,0.29,13.36-1.08,19.96-2.71c5.89-1.45,11.42-3.76,16.88-6.14
		c6.43-2.8,12.41-6.55,18.35-10.33c4.48-2.85,5.94-5.67,4.79-9.6C427.3,337.44,425.98,336.38,424.82,335.19z M150.49,453.84
		c0,0-0.01,0-0.01,0c0-0.57,0.03-1.15-0.01-1.72c-0.04-0.56-0.07-1.32-0.87-1.16c-0.61,0.13-0.42,0.83-0.34,1.3
		c0.12,0.7,0.34,1.37,0.35,2.11c0.01,0.76-1.55,1.99,0.14,2.18c1.28,0.14,0.52-1.46,0.74-2.27
		C150.52,454.14,150.49,453.98,150.49,453.84z M152.18,458.54c-0.01-0.49-0.22-0.8-0.74-0.83c-0.47-0.03-0.85,0.14-0.83,0.68
		c0.01,0.47,0.31,0.78,0.77,0.86C151.91,459.35,152.15,459.04,152.18,458.54z M436.83,473.18c-0.45,0.18-0.64,0.54-0.57,1.02
		c0.06,0.39,0.29,0.73,0.69,0.69c0.59-0.07,0.5-0.6,0.49-1.01C437.44,473.49,437.33,473.17,436.83,473.18z M438.3,467.46
		c-0.06,0.1-0.14,0.21-0.18,0.32c-0.01,0.02,0.12,0.14,0.14,0.12c0.11-0.05,0.2-0.13,0.3-0.2
		C438.48,467.63,438.39,467.54,438.3,467.46z"/>
	<path class="st2" d="M268.61,475.14c0.23,2.17,0.82,2.61,2.74,1.87c1.92-0.74,3.77-0.94,5.66,0.05c0.88,0.46,1.86,0.25,2.8,0.25
		c50.72,0.01,101.43,0.01,152.15,0.01c2.31,0,4.77-0.41,5.91,2.48c0.13,0.32,0.89,0.39,1.35,0.58c0.1,1.72-1.04,2.97-1.7,4.39
		c-3.29,7.09-6.9,14.06-11.17,20.57c-4.56,6.94-9.2,13.85-14.31,20.43c-7.31,9.41-15.01,18.44-23.54,26.75
		c-3.79,3.69-7.74,7.21-11.65,10.78c-0.52,0.47-1.04,1.04-1.83,1.11c-1.22-0.14-2.31,0.61-2.79,1.37c-0.89,1.42-1.6,1.48-2.7,0.43
		c-0.33-0.32-0.71-0.54-1.16-0.19c-0.33,0.26-0.29,0.6-0.22,0.99c0.11,0.58,1.16,1.35-0.2,1.69c-0.99,0.25-1.55-0.44-1.75-1.26
		c-0.41-1.66-1.52-1.8-2.96-1.78c-20.24,0.3-40.49-0.51-60.73,0.41c-2,0.09-3.26,0.5-3.31,2.71c-0.01,0.52-0.37,0.76-0.85,0.84
		c-0.18-3.3-1-6.34-3.29-8.88c-0.54-0.6-0.64-0.19-0.92,0.1c-2.93-7.26-8.93-10.85-16.09-12.08c-9.51-1.64-18.49-4.22-26.4-9.93
		c-5.73-4.14-11.12-8.63-15.42-14.3c0.01-0.74-0.12-1.4-0.92-1.71l0.01,0.03c0.11-0.93-0.34-1.7-0.77-2.46
		c-2.58-4.64-2.66-9.56-0.77-14.3c1.75-4.37,4.72-8.11,7.91-11.61c2.9-3.18,6.29-5.8,9.67-8.43
		C256.77,481.87,262.2,477.73,268.61,475.14z M258.56,523.25l-0.01-0.01c0.96,2.98,3.74,4.41,5.84,6.25
		c4.38,3.86,9.61,6.52,15.11,8.48c2.78,0.99,5.68,1.86,8.69,1.88c7.51,0.05,15.01,0.06,22.52-0.01c1.94-0.02,3.97-0.11,5.75-0.96
		c6.26-3.01,12.73-5.62,17.97-10.46c4.03-3.72,7.36-7.95,10.5-13.02c-1.93,0.4-3.4,0.67-4.84,1.02c-0.7,0.17-1.31,0.35-1.48-0.63
		c0.23-1.48,1.6-2.2,2.26-3.4c0.18-0.33,0.39-0.67,0.16-1.01c-0.23-0.35-0.64-0.34-0.98-0.18c-1.5,0.7-3.18,0.42-4.69,0.88
		c-3.59,1.09-7.2,0.62-10.81,0.41c-3.9-0.24-7.37-2.03-11.04-3.14c-4.68-1.42-9.51-1.8-14.41-2.01c-7.23-0.31-14.38-0.2-21.4,1.64
		c-2.86,0.75-5.53,2.3-8.41,2.86c-5.99,1.17-12.01,0.46-17.97-0.57c-0.62-0.11-1.33-0.57-1.76,0.19c-0.35,0.62,0.32,1.04,0.6,1.53
		c2.1,3.71,5.17,6.63,7.96,9.77C258.26,522.93,258.41,523.09,258.56,523.25z M340.79,504.05c-0.27-0.69-0.63-1.3-1.16-1.83
		c-7.23-7.29-14.67-14.29-23.61-19.55c-2.53-1.49-4.65-1.23-6.64,0.22c-1.87,1.36-3.77,2.71-5.6,4.15
		c-4.81,3.79-11.57,4.15-16.64,0.67c-2.09-1.43-3.97-3.19-6.05-4.64c-1.7-1.18-3.68-2.04-5.71-1c-2.2,1.12-4.33,2.41-6.34,3.84
		c-6.83,4.86-12.72,10.78-18.66,16.66c-0.32,0.32-0.9,0.59-0.6,1.35c2.07,0.01,3.96,1.24,6.12,1.04c-1.44,0.57-1.66,2.19-3.11,3.16
		c1.38,0.23,2.38,0.32,3.34,0.56c3.92,0.99,7.91,1.32,11.9,0.93c1.9-0.18,3.91,0.02,5.74-0.89c2.74-1.36,5.63-2.36,8.63-2.95
		c7.5-1.47,15.02-2.22,22.72-1.41c6.05,0.63,11.96,1.65,17.51,4.08c3.69,1.61,7.47,1.41,11.26,1.28c2.91-0.1,5.82-0.59,8.72-0.9
		c0.55-0.06,1.27,0.2,1.52-0.52c0.23-0.66-0.41-1.01-0.74-1.47C342.65,505.78,340.98,505.61,340.79,504.05z M324.1,482.04
		c-0.08-0.48-0.33-0.73-0.74-0.53c-0.8,0.39-1.84,0.5-2.14,1.56c-0.12,0.41,0.18,0.76,0.59,0.6
		C322.7,483.3,323.76,483.12,324.1,482.04z"/>
	<path class="st3" d="M298.36,569.61c0.48-0.08,0.84-0.32,0.85-0.84c0.05-2.21,1.3-2.62,3.31-2.71c20.24-0.92,40.49-0.11,60.73-0.41
		c1.44-0.02,2.56,0.13,2.96,1.78c0.2,0.81,0.76,1.51,1.75,1.26c1.36-0.35,0.31-1.12,0.2-1.69c-0.07-0.39-0.11-0.72,0.22-0.99
		c0.44-0.35,0.83-0.12,1.16,0.19c1.1,1.06,1.8,0.99,2.7-0.43c0.48-0.77,1.57-1.51,2.79-1.37c-2.56,3.2-6.1,5.29-9.13,7.96
		c-1.89,1.67-3.91,3.2-6.21,4.31l-0.08-0.08c0.74-1.39,2.32-2.45,1.76-4.36c0.34,0.12,0.7,0.21,1,0.38
		c0.38,0.22,0.73,0.54,1.19,0.33c0.12-0.06,0.24-0.39,0.19-0.54c-0.19-0.5-0.58-0.83-1.1-0.96c-0.67-0.16-1.15,0.04-1.26,0.79
		c-0.68,0.05-1.42-0.15-1.75,0.82c-0.68,2.03-2.94,1.8-4.28,2.9c-0.71,0.59-1.57,1.15-1.32,2.27c0.26,1.16,1.24,0.98,2.09,0.99
		l0.07,0.07c-0.72,0.83-1.56,1.45-2.64,1.73c-0.26-1.63-0.59-3.13-2.81-1.87c-0.28,0.16-0.71,0.06-1.07,0.08
		c-1.76,0.11-3.57,1.41-3.6,2.54c-0.03,1.43,1.98,1.93,3.58,1.89c-3.34,2.84-7.01,5.17-11.01,6.98c-0.27-1,0.75-1.8,0.59-2.89
		c-0.85,0.44-1.54,0.81-2.25,1.14c-0.41,0.19-0.83,0.37-0.78,0.9c0.05,0.52,0.47,0.71,0.92,0.76c0.5,0.06,1.02,0.06,1.52,0.08
		c-1.89,2.09-4.59,2.9-6.93,4.25c-1.14,0.66-2.11,1.86-3.61,1.87c-0.34-0.6,1.4-1.15,0.13-1.67c-0.78-0.32-1.89-0.25-2.03,0.88
		c-0.15,1.2,1.01,0.56,1.56,0.81c-2.5,2.51-5.93,3.3-9,4.69c-6.48,2.94-13.13,5.49-20.06,7.2c-2.29,0.57-4.59,0.5-6.91,0
		c-10.1-2.16-19.43-6.38-28.52-11.07c-15.85-8.19-30.54-18.18-44.29-29.56c-0.34-0.29-0.69-0.54-0.78-1
		c0.41-0.12,0.97-0.11,1.2-0.38c0.69-0.82,1.38-1.18,2.46-0.73c1.2,0.49,1.33,1.43,1.24,2.5c-0.08,0.93,0.24,1.71,0.85,2.38
		c0.65,0.71,1.05,0.58,1.32-0.35c0.78-2.7,1.81-3.3,4.54-3.5c3.5-0.26,6.8,0.21,9.93,1.78c0.52,0,1,0.07,1.44,0.41
		c3.88,3.04,8.04,5.67,12.11,8.44c8.08,5.5,16.59,10.19,25.41,14.3c9.15,4.26,17.04-0.94,19.2-10.02c1.21-0.28,1.43-1.29,1.27-2.21
		c-0.3-1.74,0.99-3.74-0.83-5.23c0-0.29,0-0.58,0-0.87c1.36-0.73,1.36-1.46,0-2.19C298.36,570.78,298.36,570.2,298.36,569.61z
		 M357.58,572.25c0.48-0.13,1.34,0.24,1.29-0.63c-0.04-0.68-0.81-0.68-1.39-0.67c-0.48,0.01-1.15-0.09-1.18,0.58
		C356.26,572.39,357.05,572.15,357.58,572.25z"/>
	<path class="st0" d="M472.51,288.34c-1.33-0.12-1.97-1.22-2.71-2.06c-7.03-8-15.04-14.95-22.92-22.07
		c-5.38-4.86-10.88-9.6-16.76-13.82c-8.59-6.17-17.27-12.18-26.83-16.93c-10.9-5.41-22.41-8.76-34.07-11.84
		c-8.99-2.38-18.14-3.99-27.31-5.29c-6.37-0.9-12.8-1.53-19.25-2.02c-7.85-0.59-15.72-0.31-23.52-0.91
		c-6.66-0.52-13.24-0.02-19.81,0.3c-7.87,0.38-15.73,1.29-23.57,2.35c-11.82,1.6-23.47,3.93-34.95,7.1
		c-9.32,2.57-18.4,5.78-27.12,10.06c-9.37,4.6-18.08,10.24-26.38,16.45c-6.85,5.13-13.39,10.67-19.77,16.41
		c-6.51,5.84-12.79,11.89-18.89,18.14c-2.94,3.01-5.69,6.22-8.51,9.35c-1.25,1.38-0.79,3.09-0.58,4.6c0.23,1.6,0.31,3.18,0.3,4.78
		c-0.03,9.82,0.97,19.58,1.41,29.38c0.37,8.17,1.17,16.34,2.18,24.47c1.04,8.41,1.99,16.83,3.28,25.22
		c1.18,7.66,2.32,15.33,3.74,22.95c1.2,6.47,2.84,12.87,4.14,19.32c1.63,8.11,3.95,16.05,6.15,24.01c0.19,0.7,0.37,1.42,0.97,1.92
		c0.18,2.91,1.71,5.47,2.22,8.29c0.59,1.9,1.17,3.8,1.76,5.7c2.04,5.25,4.01,10.54,6.14,15.76c3.14,7.67,7.24,14.87,10.91,22.29
		c-0.28-0.15-0.56-0.29-0.84-0.44c-4.35-6.82-7.96-14.03-11.3-21.38c-5.19-11.41-9.34-23.22-12.96-35.2
		c-3.22-10.65-5.84-21.47-8.16-32.37c-2.09-9.81-3.88-19.68-5.42-29.6c-1.34-8.62-2.36-17.28-3.45-25.93
		c-1-7.94-1.51-15.91-2.4-23.85c-0.49-4.4-0.71-8.84-0.94-13.27c-0.47-9.16-0.68-18.33-1.37-27.47c-0.26-3.45,1.83-5.26,3.69-7.26
		c15.61-16.76,32.34-32.26,51.14-45.44c15.88-11.14,33.38-18.55,52.23-23c12.4-2.93,24.91-5.1,37.57-6.6
		c16.4-1.95,32.85-2.18,49.29-1.57c18.34,0.68,36.51,3.14,54.38,7.42c12.76,3.06,25.33,6.8,37.05,12.87
		c11.74,6.09,22.54,13.62,32.8,21.93c8.15,6.6,15.83,13.71,23.39,20.98c4.73,4.55,9.13,9.39,13.68,14.09
		C471.73,286.79,472.42,287.39,472.51,288.34z"/>
	<path class="st2" d="M162.75,502.25c-3.67-7.41-7.78-14.62-10.91-22.29c-2.13-5.22-4.1-10.5-6.14-15.76
		c1.49-0.07,1.99-0.98,1.47-2.21c-1.26-2.96,0.4-6.2-0.98-9.14c-0.2-0.44,0.12-1.06,0.74-1.11c0.65-0.06,0.84,0.47,0.9,1.01
		c0.17,1.51,0.34,3.01,0.46,4.53c0.06,0.79-0.17,1.65,0.05,2.39c0.58,1.9,1.86,3.6,0.07,5.7c-0.66,0.77,0.35,1.77,1.6,1.23
		c0.95-0.42,1.89-0.65,2.94-0.65c3.25,0,3.1,0.01,3.75,3.16c0.29,1.39,1.34,2.62,2.08,3.91c0.14,0.24,0.5,0.3,0.78,0.11
		c0.34-0.22,0.57-0.64,0.26-0.91c-2.13-1.87-0.66-3.44,0.36-5.06c1.45,1,1.5,2.73,2.15,4.14c5.03,10.84,10.51,21.44,17.04,31.48
		c6.42,9.85,13.49,19.19,21.19,28.08c1.7,1.96,3.85,3.57,5.05,5.96c1.43,3.08,3.87,5.2,6.65,7c0.12,0.12,0.24,0.23,0.37,0.35
		c-0.04,0.64,0.3,1.1,0.74,1.51c2.91,2.72,5.9,5.37,8.72,8.18c2.82,2.81,6.43,4.71,8.9,7.9c0.07,0.39-0.16,0.95,0.43,1.05
		c0.32,0.06,0.38-0.34,0.43-0.61c0.55,0.26,0.86,0.68,0.89,1.3c0.09,0.55,0.19,1.06,0.87,0.44c2.5,1.03,4.61,2.56,6.14,4.82
		c-3.14-1.57-6.44-2.04-9.93-1.78c-2.73,0.21-3.76,0.81-4.54,3.5c-0.27,0.94-0.67,1.06-1.32,0.35c-0.62-0.67-0.93-1.45-0.85-2.38
		c0.09-1.07-0.04-2.01-1.24-2.5c-1.08-0.44-1.77-0.08-2.46,0.73c-0.23,0.27-0.79,0.26-1.2,0.38c-0.43-0.05-0.88-0.05-1.13-0.49
		c1.13-0.77,1.3-2.13,1.85-3.23c0.4-0.81-0.3-1.55-1.15-1.75c-0.96-0.22-0.67,0.66-0.81,1.15c-0.52,1.88-0.87,1.92-2.39,0.59
		c-1.03-0.9-1.61-2.51-3.38-2.39c-0.11,0.01-0.22,0-0.32-0.04c-0.04-0.57-0.35-0.86-0.92-0.87c-4.23-2.97-7.77-6.71-11.39-10.34
		c-6.06-6.07-11.71-12.54-16.98-19.3c-2.57-3.3-5.63-6.28-7.48-10.12c-0.22-2.34-2.14-3.61-3.31-5.37
		C168.03,510.72,165.42,506.46,162.75,502.25z M226.29,562.64c-0.05,0.43,0.15,0.74,0.56,0.71c0.2-0.01,0.48-0.31,0.55-0.53
		c0.1-0.33,0.09-0.77-0.4-0.82C226.58,561.94,226.39,562.27,226.29,562.64z M225.81,564.61c0.05-0.11,0.11-0.22,0.14-0.34
		c0.01-0.02-0.13-0.12-0.15-0.11c-0.1,0.06-0.18,0.15-0.27,0.23C225.62,564.46,225.71,564.53,225.81,564.61z"/>
	<path class="st2" d="M349.64,583.66c-1.6,0.04-3.62-0.46-3.58-1.89c0.03-1.12,1.84-2.43,3.6-2.54c0.36-0.02,0.79,0.08,1.07-0.08
		c2.22-1.26,2.54,0.24,2.81,1.87c0,0-0.01-0.01-0.01-0.01c-0.57,0-0.87,0.29-0.91,0.85c-0.11,0.04-0.22,0.06-0.33,0.05
		c-1.17,0.23-2.09-1.12-3.47-0.6c0.57,0.81,1.38,1.32,1.18,2.32C349.87,583.66,349.76,583.67,349.64,583.66z"/>
	<path class="st3" d="M162.75,502.25c2.67,4.22,5.28,8.47,8.03,12.64c1.16,1.76,3.09,3.03,3.31,5.37c-2.53-2.12-4.02-5.05-5.85-7.7
		c-2.14-3.09-4.07-6.31-6.05-9.5c-0.21-0.34-0.19-0.83-0.27-1.24C162.19,501.96,162.47,502.1,162.75,502.25z"/>
	<path class="st3" d="M197.37,567.8c-0.17,0.02-0.34,0.05-0.51,0.07c0,0,0-0.01,0-0.01c-0.04-0.54-0.33-0.83-0.87-0.87
		c0,0-0.01-0.01-0.01-0.01c-0.04-0.55-0.33-0.84-0.88-0.87c-2.35-1.4-3.85-3.68-5.74-5.55c-1.21-1.2-2.86-2.11-2.97-4.11
		c1.56,0.47,2.34,1.87,3.41,2.89c2.14,2.04,4.19,4.18,6.29,6.26C196.73,566.24,197.31,566.86,197.37,567.8z"/>
	<path class="st3" d="M211.19,560.92c1.77-0.13,2.35,1.48,3.38,2.39c1.53,1.34,1.87,1.3,2.39-0.59c0.14-0.49-0.16-1.37,0.81-1.15
		c0.85,0.19,1.55,0.94,1.15,1.75c-0.55,1.1-0.72,2.46-1.85,3.23C215.1,564.69,212.83,563.13,211.19,560.92z"/>
	<path class="st2" d="M440.14,477.79c-0.27-3.27,1.4-5.68,3.49-7.91C442.71,472.63,441.94,475.44,440.14,477.79z"/>
	<path class="st3" d="M186.39,556.46c-2.74-1.25-4.55-3.37-5.69-6.11C183.09,551.94,184.81,554.13,186.39,556.46z"/>
	<path class="st3" d="M359.67,576.68c-0.81,1.35-2.16,1.99-3.51,2.61c0,0-0.07-0.07-0.07-0.07c0.68-1.53,1.3-3.12,3.5-2.62
		L359.67,576.68z"/>
	<path class="st3" d="M349.98,583.63c0.21-0.99-0.61-1.51-1.18-2.32c1.37-0.52,2.3,0.83,3.47,0.6
		C351.81,582.89,350.99,583.38,349.98,583.63z"/>
	<path class="st2" d="M327.76,596.78c-0.55-0.25-1.7,0.39-1.56-0.81c0.14-1.14,1.25-1.2,2.03-0.88c1.27,0.52-0.47,1.06-0.13,1.67
		C327.99,596.78,327.88,596.79,327.76,596.78z"/>
	<path class="st0" d="M474.07,290.5c-0.95-0.41-1.63-1.02-1.58-2.17C473.25,288.88,474.17,289.32,474.07,290.5z"/>
	<path class="st2" d="M439.28,479.62c0.01-0.74-0.35-1.66,0.86-1.83C440.14,478.53,440.23,479.32,439.28,479.62z"/>
	<path class="st3" d="M209.95,560.01c0.57,0.01,0.88,0.3,0.92,0.87C210.32,560.84,210.02,560.54,209.95,560.01z"/>
	<path class="st3" d="M352.6,581.86c0.05-0.56,0.34-0.85,0.91-0.85C353.47,581.57,353.14,581.83,352.6,581.86z"/>
	<path class="st0" d="M195.99,567c0.54,0.03,0.83,0.33,0.87,0.87C196.33,567.82,196.04,567.53,195.99,567z"/>
	<path class="st0" d="M195.1,566.12c0.55,0.03,0.84,0.32,0.88,0.87C195.45,566.94,195.16,566.65,195.1,566.12z"/>
	<path class="st4" d="M205.62,536.79c-1.2-2.39-3.35-4-5.05-5.96c-7.7-8.89-14.77-18.23-21.19-28.08
		c-6.53-10.03-12.01-20.63-17.04-31.48c-0.65-1.41-0.7-3.14-2.15-4.14c-0.03-0.25-0.05-0.5-0.08-0.75c0.03-0.65-0.1-1.2-0.81-1.43
		c0.03-0.11,0.02-0.21-0.02-0.32c-0.09-1.56-0.48-2.98-1.74-4.03c-0.04-0.4-0.08-0.81-0.12-1.21c0.04-0.62-0.25-1.05-0.78-1.34
		c0,0,0.01,0,0.01,0c-0.05-0.57,0.02-1.19-0.16-1.71c-0.99-2.92-1.96-5.85-3.12-8.71c-0.71-1.76-0.8-3.76-1.99-5.34
		c-0.68-2.51-1.31-5.03-2.05-7.52c-1.55-5.19-2.85-10.44-4.16-15.7c-1.75-7.02-3.25-14.09-4.63-21.19
		c-1.2-6.2-2.27-12.42-3.29-18.65c-0.77-4.72-1.49-9.45-2.18-14.18c-0.83-5.67-1.47-11.37-2.06-17.07
		c-0.84-8.08-1.73-16.17-2.28-24.28c-0.42-6.15-1.64-12.3-1.12-18.46c0.63-7.3,3.78-13.71,8.82-19
		c11.71-12.31,24.71-23.13,38.64-32.86c9.61-6.71,19.81-12.31,30.71-16.6c7.07-2.78,14.4-4.73,21.71-6.74
		c6.16-1.69,12.41-2.96,18.67-4.05c7.49-1.3,15.03-2.58,22.67-2.89c2.03-0.08,3.98-0.71,6.03-0.82c8.14-0.46,13.4,3.68,17.24,10.31
		c0.22,0.37,0.48,0.72,0.72,1.08c0.44,1.33,0.47,2.7,0.47,4.09c-0.01,46.86-0.08,93.71,0.08,140.57c0.02,5.99-2.47,9.86-7.2,12.95
		c-2.74,1.79-5.62,2.06-8.57,1.36c-5.55-1.32-10.67-1.09-15.11,2.98c-4.64,4.25-8.4,8.91-7.73,15.77c0.46,4.72,2.56,8.72,5.31,12.45
		c5.09,6.63,11.61,11.13,19.54,13.86c3.22,1.11,5.43,4.03,7.82,6.47c2.15,2.19,3.7,4.79,5.35,7.33c0.57,1.7,0.71,3.42,0.01,5.12
		c-2.09,5.04-8.51,11.97-15.66,11.2c-6.29-0.67-12.21,1.31-17.53,4.29c-9.36,5.23-17.89,11.68-25.16,19.65
		c-2.87,3.14-5.21,6.68-6.55,10.73c-2.55,7.66,0.73,14.03,4.82,20.15c0.09,0.14,0.4,0.14,0.6,0.21c0,0-0.01-0.03-0.01-0.03
		c-0.05,0.76,0.23,1.35,0.92,1.71c4.3,5.67,9.69,10.17,15.42,14.3c7.91,5.71,16.89,8.29,26.4,9.93c7.16,1.23,13.15,4.82,16.09,12.08
		c0.55,5.23,0.51,10.44-0.04,15.67c-0.98,9.22-10.02,14.58-18.17,10.88c-7.47-3.39-14.69-7.32-21.66-11.68
		c-12.29-7.69-23.78-16.46-34.78-25.9c-2.25-1.93-4.16-4.29-6.87-5.67c-0.12-0.12-0.24-0.23-0.37-0.35
		c-0.63-1.01-1.31-1.97-2.34-2.61c-0.13-0.13-0.25-0.26-0.38-0.4c-0.57-0.91-1.32-1.64-2.21-2.23c-0.14-0.14-0.27-0.28-0.41-0.41
		C206.63,537.56,206.17,537.14,205.62,536.79z M157.04,349.15c0.23,0.75,0.38,1.55,1.33,1.74c2.99,4.68,7.45,7.8,12.07,10.47
		c8.55,4.93,17.45,9.12,27.1,11.68c7.71,2.04,15.51,2.89,23.4,3.17c4.79,0.17,9.57-0.24,14.36-0.64c6.77-0.57,13.34-1.76,19.87-3.57
		c7.8-2.15,13.61-6.7,18.24-13.27c3.71-5.26,4.45-14.23-0.68-19.58c-0.34-0.46-0.66-0.94-1.02-1.39c-4.87-5.93-11.19-8.4-18.73-7.46
		c-6.06,0.76-11.94,2.41-17.86,3.9c-7.72,1.94-15.36,1.64-23.01-0.52c-8.69-2.45-16.53-6.76-24.44-10.94
		c-4.51-2.39-9.32-4.12-14.35-4.93c-6.54-1.07-11.52,2.12-15.76,6.67c-7.67,8.23-7.16,16.07-0.94,24.24
		C156.78,348.87,156.91,349.01,157.04,349.15z"/>
	<path class="st5" d="M328.12,355.26c-0.81-1.17-2.16-1.75-2.81-3.22c-1.14-2.59-0.82-4.94,0.75-6.98c1.73-2.26,4.36-2.96,7.08-2.23
		c3.34,0.9,6.61,2.1,9.89,3.2c4.76,1.6,9.66,2.53,14.62,3.16c2.16,0.28,4.31,0.71,6.47,0.76c7.26,0.14,14.23-1.42,21.1-3.67
		c5.1-1.68,9.98-3.84,14.8-6.17c4.83-2.34,9.36-5.23,13.74-8.29c4.36-3.05,9.21-2.12,11.06,3.37c0.34,3.87-1.59,6.43-4.66,8.49
		c-8.86,5.94-18.27,10.75-28.25,14.58c-15.06,5.78-30.35,6.26-45.89,2.6C339.93,359.43,334.01,357.39,328.12,355.26z"/>
	<path class="st0" d="M262.09,423.85c-2.75-3.73-4.85-7.74-5.31-12.45c-0.67-6.86,3.09-11.52,7.73-15.77
		c4.44-4.07,9.57-4.3,15.11-2.98c2.95,0.7,5.83,0.43,8.57-1.36c4.73-3.1,7.22-6.96,7.2-12.95c-0.16-46.86-0.09-93.71-0.08-140.57
		c0-1.39-0.03-2.76-0.47-4.09c1.95,2.28,3.99,4.41,3.98,7.8c-0.05,47.74-0.03,95.49-0.03,143.23c0,6.85-6.96,13.51-13.63,12.96
		c-2.3-0.19-4.47-1.17-6.83-1.31c-3.22-0.19-6,0.67-8.57,2.58c-3.07,2.29-5.8,4.94-7.7,8.23c-2.66,4.6-2.34,9.45-0.41,14.26
		C261.97,422.21,262.73,422.91,262.09,423.85z"/>
	<path class="st5" d="M272.99,417.38c-1.65-1.43-3.13-2.89-3.87-5.11c-0.8-2.41-0.13-4.46,0.88-6.46c1.14-2.25,3.01-2.56,5.03-0.94
		c3.92,3.15,8.06,5.89,12.67,7.94c7.02,3.12,13.76,2.53,20.34-1.26c3.08-1.77,5.77-4.07,8.61-6.18c3.14-2.32,5.45-1.43,6.33,2.45
		c0.67,3.51-0.28,6.47-3.06,8.78c-1.57,1.3-3.12,2.62-4.76,3.83c-10.67,7.91-21.77,9.37-33.58,2.45
		C278.64,421.14,275.92,419.1,272.99,417.38z"/>
	<path class="st0" d="M235.34,522.85c-0.2-0.07-0.51-0.07-0.6-0.21c-4.09-6.12-7.37-12.48-4.82-20.15
		c1.35-4.05,3.69-7.58,6.55-10.73c7.27-7.97,15.8-14.42,25.16-19.65c5.32-2.97,11.24-4.96,17.53-4.29
		c7.14,0.77,13.57-6.16,15.66-11.2c0.7-1.7,0.56-3.41-0.01-5.12c3.61,2.39,5.12,7.55,2.88,11.27c-2.7,4.47-6.14,8.3-11.6,9.5
		c-2.3,0.51-4.64,0.14-6.96,0.21c-1.25,0.04-2.47,0.06-3.51,0.87c-0.29,0.01-0.58,0.01-0.87,0.02c-0.61,0.04-1.27-0.14-1.76,0.43
		c-0.6,0.06-1.27-0.13-1.74,0.45c-0.88,0.3-1.75,0.59-2.63,0.89c-6.41,2.59-11.84,6.73-17.22,10.91c-3.37,2.62-6.77,5.25-9.67,8.43
		c-3.19,3.49-6.16,7.23-7.91,11.61c-1.9,4.74-1.81,9.66,0.77,14.3C235,521.15,235.45,521.91,235.34,522.85z"/>
	<path class="st0" d="M328.12,355.26c5.89,2.13,11.8,4.17,17.9,5.6c15.55,3.65,30.83,3.18,45.89-2.6
		c9.97-3.83,19.38-8.64,28.25-14.58c3.07-2.06,5-4.62,4.66-8.49c1.16,1.19,2.48,2.24,2.98,3.95c1.15,3.93-0.31,6.75-4.79,9.6
		c-5.94,3.77-11.93,7.53-18.35,10.33c-5.46,2.38-10.99,4.68-16.88,6.14c-6.6,1.63-13.17,3-19.96,2.71
		c-7.61-0.33-15.11-1.35-22.44-3.67c-4.01-1.26-8-2.54-11.99-3.87C330.71,359.48,329.49,357.36,328.12,355.26z"/>
	<path class="st0" d="M272.99,417.38c2.94,1.72,5.66,3.77,8.6,5.49c11.81,6.91,22.91,5.46,33.58-2.45c1.63-1.21,3.19-2.53,4.76-3.83
		c2.79-2.3,3.73-5.26,3.06-8.78c4.06,3.93,4.79,9.18,1.33,12.51c-4.08,3.93-8.69,7.14-14,9.41c-5.09,2.18-10.27,2.63-15.54,1.55
		c-3.53-0.72-6.85-2.26-9.99-4.1c-3.18-1.87-6.29-3.84-9.13-6.22C274.45,419.95,273.48,418.87,272.99,417.38z"/>
	<path class="st2" d="M151.38,442.29c1.19,1.58,1.28,3.57,1.99,5.34c1.16,2.86,2.12,5.79,3.12,8.71c0.18,0.53,0.11,1.14,0.16,1.71
		c-0.35-0.1-0.73-0.13-1.03-0.3c-1.53-0.9-0.04-3.36-1.09-3.57c-1.61-0.33-2.37-0.74-2.28-2.33c0.07-1.22-1.2-1.64-1.4-2.83
		C150.48,446.69,150.4,444.48,151.38,442.29z"/>
	<path class="st2" d="M143.94,458.51c-0.51-2.83-2.04-5.38-2.22-8.29c0.59-0.02,1.36-0.03,1.53,0.57c0.69,2.38,1.68,4.72,1.37,7.28
		C144.6,458.24,144.18,458.36,143.94,458.51z"/>
	<path class="st2" d="M150.49,453.84c0,0.14,0.03,0.3-0.01,0.43c-0.22,0.8,0.54,2.4-0.74,2.27c-1.69-0.18-0.13-1.42-0.14-2.18
		c-0.01-0.74-0.23-1.41-0.35-2.11c-0.08-0.46-0.27-1.17,0.34-1.3c0.8-0.17,0.83,0.6,0.87,1.16c0.04,0.57,0.01,1.15,0.01,1.72
		C150.48,453.84,150.49,453.84,150.49,453.84z"/>
	<path class="st2" d="M157.54,460.6c1.26,1.05,1.65,2.48,1.74,4.03C157.92,463.63,156.95,462.45,157.54,460.6z"/>
	<path class="st2" d="M271.24,474.26c0.47-0.58,1.14-0.39,1.74-0.45c-0.01,0.72-0.01,1.52-0.94,1.63
		C271.18,475.54,271.29,474.8,271.24,474.26z"/>
	<path class="st2" d="M152.18,458.54c-0.04,0.5-0.27,0.81-0.8,0.71c-0.46-0.08-0.75-0.39-0.77-0.86c-0.01-0.55,0.36-0.71,0.83-0.68
		C151.96,457.73,152.18,458.05,152.18,458.54z"/>
	<path class="st2" d="M436.83,473.18c0.5-0.02,0.61,0.31,0.62,0.69c0,0.41,0.1,0.95-0.49,1.01c-0.39,0.04-0.63-0.3-0.69-0.69
		C436.19,473.72,436.38,473.37,436.83,473.18z"/>
	<path class="st2" d="M274.74,473.38c0.29-0.01,0.58-0.01,0.87-0.02c-0.06,0.38,0.15,1.01-0.42,1.02
		C274.6,474.4,274.81,473.76,274.74,473.38z"/>
	<path class="st2" d="M159.3,464.95c0.7,0.23,0.84,0.79,0.81,1.43C159.21,466.26,159.23,465.62,159.3,464.95z"/>
	<path class="st2" d="M156.64,458.05c0.53,0.29,0.82,0.72,0.78,1.34C156.61,459.26,156.61,458.67,156.64,458.05z"/>
	<path class="st2" d="M438.3,467.46c0.09,0.08,0.17,0.16,0.26,0.25c-0.1,0.07-0.19,0.15-0.3,0.2c-0.03,0.01-0.15-0.1-0.14-0.12
		C438.16,467.67,438.24,467.57,438.3,467.46z"/>
	<path class="st4" d="M258.11,522.77c-2.8-3.14-5.87-6.06-7.96-9.77c-0.27-0.48-0.95-0.9-0.6-1.53c0.43-0.76,1.14-0.29,1.76-0.19
		c5.97,1.03,11.99,1.74,17.97,0.57c2.88-0.56,5.55-2.11,8.41-2.86c7.02-1.84,14.17-1.95,21.4-1.64c4.9,0.21,9.73,0.59,14.41,2.01
		c3.66,1.11,7.13,2.91,11.04,3.14c3.61,0.22,7.22,0.69,10.81-0.41c1.51-0.46,3.19-0.19,4.69-0.88c0.34-0.16,0.75-0.17,0.98,0.18
		c0.23,0.34,0.02,0.68-0.16,1.01c-0.66,1.2-2.03,1.92-2.26,3.4c-0.38,0.33-0.84,0.61-1.13,1.01c-4.48,5.99-10.06,10.64-16.73,14.02
		c-4.8,2.44-9.5,4.98-15.2,4.8c-6.84-0.22-13.7-0.03-20.55-0.1c-2.63-0.03-5.17-0.59-7.66-1.48c-6.91-2.48-13.3-5.86-18.78-10.82
		c0,0,0.01,0.01,0.01,0.01C258.41,523.09,258.26,522.93,258.11,522.77z"/>
	<path class="st5" d="M255.9,504.95c-2.16,0.2-4.05-1.03-6.12-1.04c-0.3-0.76,0.29-1.03,0.6-1.35c5.93-5.87,11.83-11.8,18.66-16.66
		c2.01-1.43,4.14-2.72,6.34-3.84c2.04-1.04,4.01-0.19,5.71,1c2.08,1.45,3.96,3.2,6.05,4.64c5.07,3.48,11.83,3.12,16.64-0.67
		c1.82-1.44,3.72-2.79,5.6-4.15c1.99-1.45,4.11-1.71,6.64-0.22c8.94,5.27,16.38,12.27,23.61,19.55c0.53,0.53,0.89,1.14,1.16,1.83
		c-0.29,0.02-0.58,0.05-0.88,0.07c-0.14-0.05-0.27-0.04-0.4,0.04c-5.21,1.29-10.52,1.27-15.83,1.15c-1.12-0.03-2.21-0.19-3.2-0.62
		c-10.38-4.6-21.26-5.62-32.43-4.59c-6.4,0.59-12.67,1.64-18.49,4.61c-0.81,0.41-1.83,0.52-2.76,0.54
		C263.16,505.29,259.52,505.54,255.9,504.95z"/>
	<path class="st0" d="M258.55,523.24c5.48,4.96,11.87,8.33,18.78,10.82c2.49,0.9,5.04,1.46,7.66,1.48c6.85,0.07,13.7-0.12,20.55,0.1
		c5.7,0.18,10.4-2.36,15.2-4.8c6.66-3.38,12.25-8.03,16.73-14.02c0.3-0.4,0.75-0.68,1.13-1.01c0.17,0.98,0.77,0.8,1.48,0.63
		c1.44-0.35,2.91-0.62,4.84-1.02c-3.15,5.07-6.47,9.29-10.5,13.02c-5.23,4.84-11.71,7.44-17.97,10.46c-1.78,0.86-3.8,0.95-5.75,0.96
		c-7.51,0.06-15.01,0.06-22.52,0.01c-3.01-0.02-5.91-0.89-8.69-1.88c-5.49-1.96-10.73-4.63-15.11-8.48
		C262.29,527.64,259.52,526.22,258.55,523.24z"/>
	<path class="st0" d="M339.91,504.12c0.29-0.02,0.58-0.05,0.88-0.07c0.19,1.56,1.86,1.73,2.61,2.77c0.33,0.46,0.97,0.81,0.74,1.47
		c-0.25,0.72-0.97,0.46-1.52,0.52c-2.91,0.32-5.81,0.8-8.72,0.9c-3.79,0.13-7.57,0.33-11.26-1.28c-5.56-2.42-11.47-3.45-17.51-4.08
		c-7.69-0.8-15.21-0.06-22.72,1.41c-3,0.59-5.89,1.59-8.63,2.95c-1.83,0.91-3.84,0.71-5.74,0.89c-3.99,0.38-7.98,0.06-11.9-0.93
		c-0.96-0.24-1.95-0.33-3.34-0.56c1.45-0.97,1.67-2.59,3.11-3.16c3.62,0.59,7.26,0.34,10.89,0.29c0.93-0.01,1.96-0.12,2.76-0.54
		c5.81-2.98,12.09-4.03,18.49-4.61c11.17-1.03,22.05,0,32.43,4.59c0.98,0.44,2.08,0.59,3.2,0.62c5.32,0.12,10.62,0.14,15.83-1.15
		C339.64,504.14,339.78,504.13,339.91,504.12z"/>
	<path class="st0" d="M212.63,544.14c2.71,1.38,4.62,3.74,6.87,5.67c11,9.44,22.48,18.21,34.78,25.9
		c6.97,4.36,14.19,8.29,21.66,11.68c8.15,3.7,17.2-1.66,18.17-10.88c0.56-5.23,0.6-10.45,0.04-15.67c0.28-0.29,0.38-0.71,0.92-0.1
		c2.29,2.54,3.1,5.58,3.29,8.88c0,0.58,0,1.17,0,1.75c0,0.73,0,1.46,0,2.19c0,0.29,0,0.58,0,0.87c-0.15,2.48-0.29,4.96-0.44,7.44
		c-2.16,9.08-10.05,14.28-19.2,10.02c-8.82-4.11-17.33-8.8-25.41-14.3c-4.07-2.77-8.23-5.4-12.11-8.44
		c-0.43-0.34-0.92-0.41-1.44-0.41c-1.53-2.26-3.64-3.79-6.14-4.82c-0.29-0.15-0.58-0.3-0.87-0.44c-0.03-0.62-0.33-1.04-0.89-1.3
		c-0.29-0.15-0.58-0.29-0.87-0.44c-2.47-3.19-6.08-5.09-8.9-7.9c-2.82-2.81-5.81-5.46-8.72-8.18
		C212.94,545.24,212.59,544.78,212.63,544.14z"/>
	<path class="st1" d="M324.1,482.04c-0.34,1.08-1.4,1.26-2.29,1.62c-0.41,0.16-0.7-0.19-0.59-0.6c0.3-1.05,1.34-1.17,2.14-1.56
		C323.77,481.3,324.02,481.56,324.1,482.04z"/>
	<path class="st0" d="M236.25,524.53c-0.69-0.36-0.96-0.95-0.92-1.71C236.12,523.13,236.25,523.79,236.25,524.53z"/>
	<path class="st0" d="M258.11,522.77c0.15,0.16,0.3,0.32,0.45,0.48C258.41,523.09,258.26,522.93,258.11,522.77z"/>
	<path class="st2" d="M359.6,576.6c-2.2-0.5-2.82,1.09-3.5,2.62c-0.85-0.02-1.83,0.17-2.09-0.99c-0.25-1.12,0.6-1.68,1.32-2.27
		c1.34-1.1,3.6-0.88,4.28-2.9c0.33-0.97,1.07-0.77,1.75-0.82l0,0C361.91,574.15,360.33,575.21,359.6,576.6z"/>
	<path class="st2" d="M297.92,581.86c0.15-2.48,0.29-4.96,0.44-7.44c1.82,1.48,0.53,3.49,0.83,5.23
		C299.35,580.57,299.13,581.58,297.92,581.86z"/>
	<path class="st2" d="M338.64,590.64c-0.51-0.02-1.02-0.02-1.52-0.08c-0.45-0.05-0.87-0.24-0.92-0.76c-0.05-0.54,0.37-0.71,0.78-0.9
		c0.71-0.33,1.4-0.71,2.25-1.14C339.39,588.84,338.37,589.64,338.64,590.64C338.63,590.64,338.64,590.64,338.64,590.64z"/>
	<path class="st2" d="M357.58,572.25c-0.53-0.1-1.31,0.14-1.28-0.72c0.03-0.67,0.71-0.57,1.18-0.58c0.57-0.01,1.34,0,1.39,0.67
		C358.92,572.49,358.06,572.12,357.58,572.25z"/>
	<path class="st2" d="M361.36,572.24c0.12-0.75,0.6-0.95,1.26-0.79c0.52,0.12,0.92,0.46,1.1,0.96c0.05,0.14-0.06,0.48-0.19,0.54
		c-0.46,0.21-0.81-0.11-1.19-0.33C362.05,572.44,361.69,572.36,361.36,572.24L361.36,572.24z"/>
	<path class="st2" d="M298.36,573.55c0-0.73,0-1.46,0-2.19C299.72,572.09,299.72,572.82,298.36,573.55z"/>
	<path class="st0" d="M207.34,538.56c0.9,0.59,1.65,1.31,2.21,2.22c0.13,0.13,0.25,0.26,0.38,0.4c1.03,0.64,1.71,1.61,2.34,2.61
		c-2.78-1.8-5.22-3.92-6.65-7c0.55,0.34,1.01,0.76,1.31,1.35C207.06,538.28,207.2,538.42,207.34,538.56z"/>
	<path class="st3" d="M226.29,562.64c0.1-0.37,0.29-0.7,0.71-0.65c0.49,0.06,0.49,0.5,0.4,0.82c-0.06,0.22-0.35,0.52-0.55,0.53
		C226.44,563.38,226.23,563.07,226.29,562.64z"/>
	<path class="st3" d="M231,561.73c0.29,0.15,0.58,0.29,0.87,0.44c-0.05,0.28-0.11,0.67-0.43,0.61
		C230.83,562.68,231.06,562.12,231,561.73z"/>
	<path class="st3" d="M232.75,563.47c0.29,0.15,0.58,0.3,0.87,0.44C232.94,564.53,232.84,564.02,232.75,563.47z"/>
	<path class="st3" d="M225.81,564.61c-0.1-0.07-0.19-0.15-0.29-0.22c0.09-0.08,0.17-0.17,0.27-0.23c0.02-0.01,0.16,0.08,0.15,0.11
		C225.92,564.39,225.86,564.5,225.81,564.61z"/>
	<path class="st1" d="M272.74,339.15c5.13,5.34,4.38,14.31,0.68,19.58c-4.63,6.58-10.44,11.12-18.24,13.27
		c-6.53,1.8-13.1,2.99-19.87,3.57c-4.8,0.4-9.57,0.81-14.36,0.64c-7.89-0.28-15.69-1.13-23.4-3.17c-9.66-2.56-18.55-6.75-27.1-11.68
		c-4.62-2.66-9.08-5.79-12.07-10.47c0.07-0.79-0.45-1.33-0.77-1.98c-1.38-2.78-2.27-5.6-2.06-8.87c0.25-3.92,2.22-6.91,4.5-9.68
		c2.57-3.13,5.51-6,9.61-7.21c7.11-2.1,13.59,0.39,19.69,3.35c7.37,3.58,14.53,7.58,22.21,10.52c8.16,3.13,16.62,3.92,25.09,2.3
		c6.74-1.29,13.3-3.52,20.15-4.37c5.1-0.64,10.03-0.35,14.06,3.5C271.35,338.94,271.88,339.57,272.74,339.15z M264.41,349.96
		c-0.6-6.23-2.99-8.22-9.21-6.86c-4.13,0.9-8.02,2.78-12.16,3.82c-6.14,1.53-12.35,2.66-18.64,3c-5.38,0.29-10.6-1.05-15.82-2.34
		c-9.18-2.27-17.48-6.43-25.65-10.99c-3.41-1.91-6.33-4.6-9.97-6.14c-3.05-1.29-7.55,0.82-8.49,3.98c-1.18,3.95,0.59,6.69,3.55,8.99
		c0.29,1.34,1.06,2.42,2.12,3.2c6.32,4.67,13.07,8.71,20.17,11.99c9.81,4.54,19.94,8.12,30.89,9.08c5.2,0.46,10.35,0.3,15.43-0.34
		c5.95-0.75,11.9-1.89,17.62-3.86c3.37-1.17,6.88-1.95,10.05-3.65c3.87-2.08,4.87-7.48,1.98-10.38
		C265.28,348.46,264.68,348.51,264.41,349.96z"/>
	<path class="st0" d="M272.74,339.15c-0.86,0.42-1.39-0.21-1.89-0.69c-4.03-3.85-8.96-4.14-14.06-3.5
		c-6.85,0.85-13.41,3.08-20.15,4.37c-8.47,1.62-16.93,0.83-25.09-2.3c-7.68-2.95-14.84-6.94-22.21-10.52
		c-6.11-2.97-12.58-5.45-19.69-3.35c-4.1,1.21-7.04,4.08-9.61,7.21c-2.28,2.77-4.24,5.75-4.5,9.68c-0.21,3.27,0.68,6.08,2.06,8.87
		c0.32,0.65,0.84,1.19,0.77,1.98c-0.95-0.2-1.1-1-1.33-1.74c-0.13-0.14-0.27-0.28-0.4-0.42c-6.22-8.17-6.74-16.01,0.94-24.24
		c4.24-4.55,9.22-7.74,15.76-6.67c5.02,0.82,9.83,2.55,14.35,4.93c7.91,4.18,15.75,8.49,24.44,10.94
		c7.65,2.16,15.29,2.46,23.01,0.52c5.91-1.49,11.8-3.14,17.86-3.9c7.54-0.94,13.86,1.53,18.73,7.46
		C272.09,338.21,272.4,338.69,272.74,339.15z"/>
	<path class="st1" d="M156.64,348.73c0.13,0.14,0.27,0.28,0.4,0.42C156.91,349.01,156.78,348.87,156.64,348.73z"/>
	<path class="st2" d="M209.93,541.18c-0.13-0.13-0.25-0.26-0.38-0.4C209.68,540.92,209.8,541.05,209.93,541.18z"/>
	<path class="st2" d="M207.34,538.56c-0.14-0.14-0.27-0.28-0.41-0.41C207.06,538.28,207.2,538.42,207.34,538.56z"/>
	<path class="st2" d="M339.91,504.12c-0.13,0.01-0.27,0.02-0.4,0.03C339.64,504.08,339.77,504.07,339.91,504.12z"/>
	<path class="st5" d="M168,343.41c-2.96-2.3-4.73-5.04-3.55-8.99c0.94-3.16,5.44-5.27,8.49-3.98c3.64,1.54,6.56,4.23,9.97,6.14
		c8.17,4.56,16.48,8.73,25.65,10.99c5.22,1.29,10.44,2.63,15.82,2.34c6.3-0.34,12.51-1.47,18.64-3c4.14-1.03,8.03-2.91,12.16-3.82
		c6.22-1.36,8.61,0.63,9.21,6.86c-0.43,2.56-1.82,4.39-4.18,5.45c-6.66,2.98-13.66,4.89-20.79,6.32
		c-8.69,1.74-17.48,2.24-26.24,0.89c-12.51-1.94-24-6.84-34.95-13.04C174.79,347.61,171.42,345.47,168,343.41z"/>
	<path class="st0" d="M168,343.41c3.42,2.06,6.78,4.2,10.25,6.16c10.95,6.2,22.44,11.1,34.95,13.04c8.76,1.36,17.54,0.85,26.24-0.89
		c7.13-1.42,14.13-3.34,20.79-6.32c2.36-1.05,3.75-2.89,4.18-5.45c0.27-1.45,0.87-1.5,1.86-0.51c2.89,2.9,1.9,8.3-1.98,10.38
		c-3.17,1.7-6.68,2.49-10.05,3.65c-5.72,1.98-11.67,3.11-17.62,3.86c-5.08,0.64-10.23,0.8-15.43,0.34
		c-10.95-0.96-21.09-4.55-30.89-9.08c-7.1-3.28-13.85-7.31-20.17-11.99C169.07,345.83,168.3,344.75,168,343.41z"/>
</g>
</svg>
